# xmcd
#
# Track frame offsets:
# 150
# 3641
# 16771
# 34226
# 52816
# 57804
# 75848
# 89652
# 101393
# 107177
# 128051
# 132569
# 140915
# 148459
# 158641
# 174863
# 192908
#
# Disc length: 4067 seconds
#
#
# Revision: 0
# Processed by: cddbd v1.4PL0 Copyright (c) Steve Scherf et al.
# Submitted via: FreeRIP 2.00 
#
DISCID=e20fe111
DTITLE=hoengdobel - a tribute to hoengdobel
DYEAR=2002
DGENRE=Folk
TTITLE0=Phonetisches Versuchslabor Prof.Dr. Gerbenbrinck
TTITLE1=Surstroming Fem
TTITLE2=Gelegenheit X
TTITLE3=K.U.Z.Y.
TTITLE4=Hardy Maria Kleinwurst
TTITLE5=Franz Pöschls Schrammelmaniy
TTITLE6=Hansi Rennsport and seine Gaudinockerl
TTITLE7=Hee Haw Hopkins Band
TTITLE8=Wayne Raider Trio
TTITLE9=Die drei lustigen Vier
TTITLE10=Ensemble Bordevela
TTITLE11=Das Faktotum
TTITLE12=Phase 4
TTITLE13=Viva muerte
TTITLE14=Big Band des Gustav-Schneutzer-Gymnasiums
TTITLE15=War and Run
TTITLE16=Cool Bergmann Quintett
EXTD=
EXTT0=
EXTT1=
EXTT2=
EXTT3=
EXTT4=
EXTT5=
EXTT6=
EXTT7=
EXTT8=
EXTT9=
EXTT10=
EXTT11=
EXTT12=
EXTT13=
EXTT14=
EXTT15=
EXTT16=
PLAYORDER=
